<?xml version="1.0" encoding="utf-8"?>
<!-- Generator: Adobe Illustrator 16.0.0, SVG Export Plug-In . SVG Version: 6.00 Build 0)  -->
<!DOCTYPE svg PUBLIC "-//W3C//DTD SVG 1.0//EN" "http://www.w3.org/TR/2001/REC-SVG-20010904/DTD/svg10.dtd">
<svg version="1.0" id="Layer_1" xmlns="http://www.w3.org/2000/svg" xmlns:xlink="http://www.w3.org/1999/xlink" x="0px" y="0px"
	 width="100px" height="100px" viewBox="0 0 100 100" enable-background="new 0 0 100 100" xml:space="preserve">
<path d="M49.388,35c-1.377-3.875-5.039-6.667-9.388-6.667S31.989,31.125,30.612,35H20v6.667h10.612
	c1.377,3.875,5.039,6.667,9.388,6.667s8.011-2.792,9.388-6.667H80V35H49.388z M40,41.667c-1.839,0-3.333-1.492-3.333-3.333
	S38.161,35,40,35c1.843,0,3.333,1.493,3.333,3.333S41.843,41.667,40,41.667z"/>
<path d="M72.722,58.334c-1.377-3.877-5.039-6.668-9.389-6.668c-4.349,0-8.011,2.791-9.388,6.668H20V65h33.945
	c1.377,3.877,5.039,6.666,9.388,6.666c4.35,0,8.012-2.789,9.389-6.666H80v-6.666H72.722z M63.333,65C61.491,65,60,63.51,60,61.666
	c0-1.842,1.491-3.332,3.333-3.332c1.843,0,3.334,1.49,3.334,3.332C66.667,63.51,65.176,65,63.333,65z"/>
</svg>
