<svg xmlns="http://www.w3.org/2000/svg" xmlns:xlink="http://www.w3.org/1999/xlink" width="16" height="16" viewBox="0 0 16 16">
    <defs>
        <path id="g0mzx22voa" d="M8.54 2.52c.497 0 .9.403.9.9l-.001 4.219 4.221.001c.497 0 .9.403.9.9s-.403.9-.9.9l-4.221-.001.001 4.221c0 .497-.403.9-.9.9s-.9-.403-.9-.9l-.001-4.221-4.219.001c-.497 0-.9-.403-.9-.9s.403-.9.9-.9l4.219-.001.001-4.219c0-.497.403-.9.9-.9z"/>
    </defs>
    <g fill="none" fill-rule="evenodd">
        <g>
            <g>
                <g>
                    <g>
                        <g transform="translate(-555 -1050) translate(361 981) translate(182) translate(11 68) translate(.48 .48)">
                            <mask id="tlfk20utyb" fill="#fff">
                                <use xlink:href="#g0mzx22voa"/>
                            </mask>
                            <use fill="#000" transform="rotate(45 8.54 8.54)" xlink:href="#g0mzx22voa"/>
                        </g>
                    </g>
                </g>
            </g>
        </g>
    </g>
</svg>
