<svg xmlns="http://www.w3.org/2000/svg" viewBox="-21 0 512 512" width="18" height="18"><path d="M288 106.667969c-3.925781 0-7.851562-1.429688-10.921875-4.3125l-80-74.664063c-4.800781-4.480468-6.378906-11.457031-3.96875-17.558594C195.519531 4.03125 201.429688 0 208 0h160c6.570312 0 12.480469 4.011719 14.890625 10.132812 2.410156 6.125.832031 13.078126-3.96875 17.558594l-80 74.664063c-3.070313 2.882812-6.996094 4.3125-10.921875 4.3125zM248.597656 32L288 68.777344 327.402344 32zm0 0M432 512h-53.332031c-20.589844 0-37.335938-16.746094-37.335938-37.332031V144c0-20.585938 16.746094-37.332031 37.335938-37.332031H432c20.585938 0 37.332031 16.746093 37.332031 37.332031v330.667969C469.332031 495.253906 452.585938 512 432 512zm-53.332031-373.332031c-2.945313 0-5.335938 2.386719-5.335938 5.332031v330.667969c0 2.941406 2.390625 5.332031 5.335938 5.332031H432c2.945312 0 5.332031-2.390625 5.332031-5.332031V144c0-2.945312-2.386719-5.332031-5.332031-5.332031zm0 0M197.332031 512h-160C16.746094 512 0 495.253906 0 474.667969V144c0-20.585938 16.746094-37.332031 37.332031-37.332031h160c20.589844 0 37.335938 16.746093 37.335938 37.332031v330.667969c0 20.585937-16.746094 37.332031-37.335938 37.332031zm-160-373.332031C34.390625 138.667969 32 141.054688 32 144v330.667969C32 477.609375 34.390625 480 37.332031 480h160c2.945313 0 5.335938-2.390625 5.335938-5.332031V144c0-2.945312-2.390625-5.332031-5.335938-5.332031zm0 0"/><path d="M453.332031 325.332031h-96c-8.832031 0-16-7.167969-16-16s7.167969-16 16-16h96c8.832031 0 16 7.167969 16 16s-7.167969 16-16 16zm0 0M218.667969 325.332031H16c-8.832031 0-16-7.167969-16-16s7.167969-16 16-16h202.667969c8.832031 0 16 7.167969 16 16s-7.167969 16-16 16zm0 0"/><path d="M117.332031 512c-8.832031 0-16-7.167969-16-16V122.667969c0-8.832031 7.167969-16 16-16s16 7.167969 16 16V496c0 8.832031-7.167969 16-16 16zm0 0"/></svg>
