<svg xmlns="http://www.w3.org/2000/svg" viewBox="0 -21 512 512" width="18" height="18"><path d="M16 277.332031c-1.984375 0-3.96875-.363281-5.867188-1.109375C4.011719 273.8125 0 267.902344 0 261.332031v-160c0-6.570312 4.011719-12.480469 10.132812-14.890625 6.144532-2.410156 13.078126-.851562 17.558594 3.96875l74.664063 80c5.761719 6.144532 5.761719 15.679688 0 21.824219l-74.664063 80C24.597656 275.5625 20.351562 277.332031 16 277.332031zm16-135.402343v78.804687l36.777344-39.402344zm0 0M474.667969 128H144c-20.585938 0-37.332031-16.746094-37.332031-37.332031V37.332031C106.667969 16.746094 123.414062 0 144 0h330.667969C495.253906 0 512 16.746094 512 37.332031v53.335938C512 111.253906 495.253906 128 474.667969 128zM144 32c-2.945312 0-5.332031 2.390625-5.332031 5.332031v53.335938C138.667969 93.609375 141.054688 96 144 96h330.667969C477.609375 96 480 93.609375 480 90.667969V37.332031C480 34.390625 477.609375 32 474.667969 32zm0 0M474.667969 469.332031H144c-20.585938 0-37.332031-16.746093-37.332031-37.332031V272c0-20.585938 16.746093-37.332031 37.332031-37.332031h330.667969C495.253906 234.667969 512 251.414062 512 272v160c0 20.585938-16.746094 37.332031-37.332031 37.332031zM144 266.667969c-2.945312 0-5.332031 2.386719-5.332031 5.332031v160c0 2.945312 2.386719 5.332031 5.332031 5.332031h330.667969C477.609375 437.332031 480 434.945312 480 432V272c0-2.945312-2.390625-5.332031-5.332031-5.332031zm0 0"/><path d="M309.332031 128c-8.832031 0-16-7.167969-16-16V16c0-8.832031 7.167969-16 16-16s16 7.167969 16 16v96c0 8.832031-7.167969 16-16 16zm0 0M309.332031 469.332031c-8.832031 0-16-7.167969-16-16V250.667969c0-8.832031 7.167969-16 16-16s16 7.167969 16 16v202.664062c0 8.832031-7.167969 16-16 16zm0 0"/><path d="M496 368H122.667969c-8.832031 0-16-7.167969-16-16s7.167969-16 16-16H496c8.832031 0 16 7.167969 16 16s-7.167969 16-16 16zm0 0"/></svg>
