<svg xmlns="http://www.w3.org/2000/svg" viewBox="0 -21 512 512" width="18" height="18"><path d="M16 384c-1.984375 0-3.96875-.363281-5.867188-1.109375C4.011719 380.480469 0 374.570312 0 368V208c0-6.570312 4.011719-12.480469 10.132812-14.890625 6.144532-2.410156 13.078126-.851563 17.558594 3.96875l74.664063 80c5.761719 6.144531 5.761719 15.679687 0 21.824219l-74.664063 80C24.597656 382.230469 20.351562 384 16 384zm16-135.402344v78.804688L68.777344 288zm0 0M474.667969 469.332031H144c-20.585938 0-37.332031-16.746093-37.332031-37.332031v-53.332031c0-20.589844 16.746093-37.335938 37.332031-37.335938h330.667969c20.585937 0 37.332031 16.746094 37.332031 37.335938V432c0 20.585938-16.746094 37.332031-37.332031 37.332031zm-330.667969-96c-2.945312 0-5.332031 2.390625-5.332031 5.335938V432c0 2.945312 2.386719 5.332031 5.332031 5.332031h330.667969C477.609375 437.332031 480 434.945312 480 432v-53.332031c0-2.945313-2.390625-5.335938-5.332031-5.335938zm0 0M474.667969 234.667969H144c-20.585938 0-37.332031-16.746094-37.332031-37.335938v-160C106.667969 16.746094 123.414062 0 144 0h330.667969C495.253906 0 512 16.746094 512 37.332031v160c0 20.589844-16.746094 37.335938-37.332031 37.335938zM144 32c-2.945312 0-5.332031 2.390625-5.332031 5.332031v160c0 2.945313 2.386719 5.335938 5.332031 5.335938h330.667969c2.941406 0 5.332031-2.390625 5.332031-5.335938v-160C480 34.390625 477.609375 32 474.667969 32zm0 0"/><path d="M309.332031 469.332031c-8.832031 0-16-7.167969-16-16v-96c0-8.832031 7.167969-16 16-16s16 7.167969 16 16v96c0 8.832031-7.167969 16-16 16zm0 0M309.332031 234.667969c-8.832031 0-16-7.167969-16-16V16c0-8.832031 7.167969-16 16-16s16 7.167969 16 16v202.667969c0 8.832031-7.167969 16-16 16zm0 0"/><path d="M496 133.332031H122.667969c-8.832031 0-16-7.167969-16-16s7.167969-16 16-16H496c8.832031 0 16 7.167969 16 16s-7.167969 16-16 16zm0 0"/></svg>
