<svg xmlns="http://www.w3.org/2000/svg" viewBox="-21 0 512 512" width="18" height="18"><path d="M181.332031 106.667969c-3.925781 0-7.828125-1.429688-10.921875-4.3125l-80-74.664063c-4.820312-4.480468-6.378906-11.457031-3.96875-17.558594C88.851562 4.011719 94.761719 0 101.332031 0h160c6.570313 0 12.480469 4.011719 14.871094 10.132812 2.410156 6.125.851563 13.078126-3.96875 17.558594l-80 74.664063c-3.070313 2.882812-6.976563 4.3125-10.902344 4.3125zM141.910156 32l39.421875 36.777344L220.757812 32zm0 0M90.667969 512H37.332031C16.746094 512 0 495.253906 0 474.667969V144c0-20.585938 16.746094-37.332031 37.332031-37.332031h53.335938C111.253906 106.667969 128 123.414062 128 144v330.667969C128 495.253906 111.253906 512 90.667969 512zM37.332031 138.667969C34.390625 138.667969 32 141.054688 32 144v330.667969C32 477.609375 34.390625 480 37.332031 480h53.335938C93.609375 480 96 477.609375 96 474.667969V144c0-2.945312-2.390625-5.332031-5.332031-5.332031zm0 0M432 512H272c-20.585938 0-37.332031-16.746094-37.332031-37.332031V144c0-20.585938 16.746093-37.332031 37.332031-37.332031h160c20.585938 0 37.332031 16.746093 37.332031 37.332031v330.667969C469.332031 495.253906 452.585938 512 432 512zM272 138.667969c-2.945312 0-5.332031 2.386719-5.332031 5.332031v330.667969C266.667969 477.609375 269.054688 480 272 480h160c2.945312 0 5.332031-2.390625 5.332031-5.332031V144c0-2.945312-2.386719-5.332031-5.332031-5.332031zm0 0"/><path d="M112 325.332031H16c-8.832031 0-16-7.167969-16-16s7.167969-16 16-16h96c8.832031 0 16 7.167969 16 16s-7.167969 16-16 16zm0 0M453.332031 325.332031H250.667969c-8.832031 0-16-7.167969-16-16s7.167969-16 16-16h202.664062c8.832031 0 16 7.167969 16 16s-7.167969 16-16 16zm0 0"/><path d="M352 512c-8.832031 0-16-7.167969-16-16V122.667969c0-8.832031 7.167969-16 16-16s16 7.167969 16 16V496c0 8.832031-7.167969 16-16 16zm0 0"/></svg>
