<svg xmlns="http://www.w3.org/2000/svg" xmlns:xlink="http://www.w3.org/1999/xlink" width="16" height="16"><defs><path id="006kfvgdi" d="M8.288.362l.01.012 2.52 3.503a.895.895 0 01.169.568v.067a.894.894 0 01-.249.632l-.01.012-3.064 3.093a.9.9 0 01-1.29-1.254l.011-.012 1.877-1.896c-1.824-.204-3.232.063-4.242.767-1.279.892-2.035 2.571-2.222 5.112a.901.901 0 01-1.796-.132C.226 7.799 1.207 5.622 2.99 4.378c1.342-.936 3.072-1.296 5.173-1.11L6.836 1.427A.9.9 0 018.279.351l.01.012z"/></defs><use fill="#1D202B" fill-rule="nonzero" transform="matrix(1 0 0 -1 2.52 13.88)" xlink:href="#006kfvgdi"/></svg>