<svg xmlns="http://www.w3.org/2000/svg" xmlns:xlink="http://www.w3.org/1999/xlink" width="16" height="16" viewBox="0 0 16 16">
    <defs>
        <path id="mzuueez9ua" d="M8.728-.038l.01.012 2.52 3.503c.124.171.178.372.169.568v.067c.003.227-.08.456-.249.632l-.01.012-3.064 3.093c-.35.354-.92.357-1.272.007-.35-.346-.356-.907-.018-1.261l.011-.012 1.877-1.896c-1.824-.204-3.232.063-4.242.767-1.279.892-2.035 2.571-2.222 5.112-.037.496-.468.868-.964.832-.496-.037-.868-.468-.832-.964.224-3.035 1.205-5.212 2.988-6.456 1.342-.936 3.072-1.296 5.173-1.11L7.276 1.027C6.986.622 7.077.06 7.481-.23c.395-.285.943-.203 1.238.18l.01.012z"/>
    </defs>
    <g fill="none" fill-rule="evenodd">
        <g>
            <g>
                <g>
                    <g>
                        <g transform="translate(-555 -993) translate(361 981) translate(182) translate(12 12) translate(2.08 2.48)">
                            <mask id="tyga0qnalb" fill="#fff">
                                <use xlink:href="#mzuueez9ua"/>
                            </mask>
                            <use fill="#1D202B" fill-rule="nonzero" transform="matrix(0 1 1 0 .434 -.434)" xlink:href="#mzuueez9ua"/>
                        </g>
                    </g>
                </g>
            </g>
        </g>
    </g>
</svg>
