<svg width="18" height="14" viewBox="0 0 18 14" xmlns="http://www.w3.org/2000/svg" xmlns:xlink="http://www.w3.org/1999/xlink">
    <defs>
        <path d="M4 11v1.95a1.7 1.7 0 0 0 1.7 1.7h3.45V11H4zm0-2h5.15V5.35H5.7A1.7 1.7 0 0 0 4 7.05V9zm12.3 2h-5.15v3.65h3.45a1.7 1.7 0 0 0 1.7-1.7V11zm0-2V7.05a1.7 1.7 0 0 0-1.7-1.7h-3.45V9h5.15zM5.7 3.1h8.9a3.95 3.95 0 0 1 3.95 3.95v5.9a3.95 3.95 0 0 1-3.95 3.95H5.7a3.95 3.95 0 0 1-3.95-3.95v-5.9A3.95 3.95 0 0 1 5.7 3.1z" id="tabel-icon-path-a"/>
    </defs>
    <g>
        <path fill="#FFF" d="M-640-2111H736V483H-640z"/>
        <g transform="translate(-1.167 -3)">
            <mask id="tabel-icon-path-b" fill="#fff">
                <use xlink:href="#tabel-icon-path-a"/>
            </mask>
            <g mask="url(#tabel-icon-path-b)" >
                <path d="M0 0h20v20H0z"/>
            </g>
        </g>
    </g>
</svg>