<svg xmlns="http://www.w3.org/2000/svg" xmlns:xlink="http://www.w3.org/1999/xlink" width="15" height="13" viewBox="0 0 15 13">
    <path id="0d3hrkr6ka" d="M14.74 10.175c.608 0 1.1.492 1.1 1.1 0 .608-.492 1.1-1.1 1.1H1.1c-.608 0-1.1-.492-1.1-1.1 0-.608.492-1.1 1.1-1.1h13.64zm0-4.235c.608 0 1.1.492 1.1 1.1 0 .608-.492 1.1-1.1 1.1H1.1c-.608 0-1.1-.492-1.1-1.1 0-.608.492-1.1 1.1-1.1h13.64zM13.887 0c1.079 0 1.953.874 1.953 1.952 0 1.079-.874 1.953-1.953 1.953H1.954C.874 3.905 0 3.031 0 1.953 0 .873.874 0 1.952 0h11.935z"/>
</svg>
