<svg xmlns="http://www.w3.org/2000/svg" xmlns:xlink="http://www.w3.org/1999/xlink" width="15" height="13" viewBox="0 0 15 13">
    <path id="q7x34m83ca" d="M14.602 9.9c.684 0 1.238.554 1.238 1.237 0 .684-.554 1.238-1.238 1.238H1.238C.554 12.375 0 11.821 0 11.137 0 10.454.554 9.9 1.238 9.9h13.364zm0-4.95c.684 0 1.238.554 1.238 1.237 0 .684-.554 1.238-1.238 1.238H1.238C.554 7.425 0 6.871 0 6.188 0 5.503.554 4.95 1.238 4.95h13.364zm0-4.95c.684 0 1.238.554 1.238 1.238 0 .683-.554 1.237-1.238 1.237H1.238C.554 2.475 0 1.921 0 1.237 0 .554.554 0 1.238 0h13.364z"/>
</svg>
